<?xml version="1.0" encoding="utf-8"?>
<svg xmlns="http://www.w3.org/2000/svg" viewBox="4.272 64.075 677.7 331.696" style="mix-blend-mode: darken; isolation: isolate;" xmlns:bx="https://boxy-svg.com">
  <defs>
    <radialGradient gradientUnits="userSpaceOnUse" cx="136.349" cy="194.142" r="84.069" id="gradient-0" gradientTransform="matrix(1, 0.000001, 0, 1, -40.153517, -4.271701)">
      <stop offset="0" style="stop-color: rgb(26.667% 47.451% 9.8039%)"/>
      <stop offset="1" style="stop-color: rgb(7.3131% 29.701% 0%)"/>
    </radialGradient>
    <pattern x="0" y="0" width="25" height="25" patternUnits="userSpaceOnUse" viewBox="0 0 100 100" id="pattern-0">
      <rect x="0" y="0" width="50" height="100" style="fill: black;"/>
    </pattern>
    <pattern id="pattern-0-0" href="#pattern-0" patternTransform="matrix(1, 0, 0, 1, 423.142795, 310.200508)"/>
    <pattern id="pattern-0-1" href="#pattern-0" patternTransform="matrix(1, 0, 0, 1, 423.209259, 316.5012)"/>
    <bx:export>
      <bx:file format="svg"/>
      <bx:file format="gif"/>
      <bx:file format="gif" path="Untitled 2.gif"/>
      <bx:file format="png"/>
      <bx:file format="jpeg"/>
      <bx:file format="html"/>
      <bx:file format="pdf">
        <bx:page/>
      </bx:file>
      <bx:file format="pdf" path="Untitled 2.pdf">
        <bx:page href="#object-0"/>
      </bx:file>
      <bx:file format="html" href="#object-0" path="Untitled 2.html"/>
      <bx:file format="svg" href="#object-0" path="Untitled 2.svg"/>
      <bx:file format="gif" href="#object-0" path="Untitled 3.gif"/>
      <bx:file format="webp" href="#object-0"/>
      <bx:file format="jpeg" href="#object-0" path="Untitled 2.jpeg"/>
      <bx:file format="png" href="#object-0" path="Untitled 2.png"/>
    </bx:export>
  </defs>
  <path style="mix-blend-mode: darken; isolation: isolate; will-change: filter, mix-blend-mode, opacity, transform, content; shape-rendering: geometricprecision; fill: rgb(207, 67, 67); stroke: url(&quot;#gradient-0&quot;); paint-order: stroke; transform-box: fill-box; transform-origin: 50% 50%;" d="M 160.61433333333335 236.08100000000002 C 140.96466666666666 237.22000000000003 101.66533333333332 239.49800000000002 75.60816666666666 237.36216666666667 C 49.550999999999995 235.22633333333337 36.736 228.67666666666665 28.050333333333338 220.84533333333334 C 19.36466666666667 213.014 14.808333333333332 203.90099999999998 12.957166666666666 192.65233333333333 C 11.106 181.40366666666668 11.96 168.01933333333332 19.5065 158.47933333333333 C 27.052999999999997 148.93933333333334 41.292 143.24366666666666 54.67666666666667 141.81966666666668 C 68.06133333333334 140.39566666666667 80.59166666666667 143.24333333333334 101.3805 159.47566666666668 C 122.16933333333334 175.708 151.21666666666667 205.32500000000002 165.74033333333333 220.1335 C 180.264 234.942 180.264 234.942 180.264 234.942 C 180.264 234.942 180.264 234.942 160.61433333333335 236.08100000000002" bx:d="M 180.264 234.942 U 62.366 241.776 U 23.921 222.127 U 10.252 194.788 U 12.814 154.635 U 55.531 137.548 U 93.122 146.091 U 180.264 234.942 U 180.264 234.942 Z 1@745859f0" transform="matrix(0.999391, 0.034899, -0.034899, 0.999391, -0.000001, 0)"/>
  <path style="stroke: rgb(0, 0, 0); fill: rgb(33, 217, 74);" d="M 162.32316666666665 219.75349999999995 C 145.23633333333333 203.521 111.06266666666666 171.056 94.68783333333333 147.989 C 78.313 124.92200000000001 79.73700000000001 111.253 85.29016666666666 100.28916666666667 C 90.84333333333332 89.32533333333333 100.52566666666667 81.06666666666668 110.63533333333332 76.93733333333334 C 120.745 72.808 131.282 72.808 141.53416666666666 77.64916666666667 C 151.78633333333332 82.49033333333334 161.75366666666665 92.17266666666667 166.73733333333334 103.279 C 171.721 114.38533333333334 171.721 126.91566666666667 173.00250000000003 149.27083333333334 C 174.284 171.62599999999998 176.84699999999998 203.806 178.1285 219.89599999999996 C 179.41 235.986 179.41 235.986 179.41 235.98599999999996 C 179.41 235.986 179.41 235.986 162.32316666666665 219.75349999999995" bx:d="M 179.41 235.986 U 76.889 138.591 U 81.161 97.584 U 110.208 72.808 U 141.819 72.808 U 171.721 101.855 U 171.721 139.446 U 179.41 235.986 U 179.41 235.986 Z 1@f81ee437"/>
  <path style="stroke: rgb(0, 0, 0); fill: rgb(67, 48, 146);" d="M 175.138 239.403 L 155.34583333333333 239.403 C 135.55366666666666 239.403 95.96933333333334 239.403 69.76983333333332 244.24416666666664 C 43.57033333333333 249.08533333333332 30.755666666666666 258.7676666666667 23.778666666666666 269.3043333333333 C 16.801666666666666 279.84099999999995 15.662333333333331 291.23199999999997 19.221833333333333 303.19266666666664 C 22.781333333333333 315.15333333333336 31.039666666666665 327.6836666666666 43.14266666666666 332.6673333333333 C 55.24566666666667 337.651 71.19333333333334 335.08799999999997 85.00516666666667 329.962 C 98.81700000000001 324.836 110.493 317.147 125.15916666666668 301.62666666666667 C 139.82533333333333 286.10633333333334 157.48166666666665 262.75466666666665 166.30983333333333 251.07883333333334 C 175.138 239.403 175.138 239.403 175.138 239.403 L 175.138 239.403" bx:d="M 175.138 239.403 U 56.385 239.403 U 17.941 268.45 U 14.523 302.623 U 39.298 340.214 U 87.141 332.525 U 122.169 309.458 U 175.138 239.403 U 175.138 239.403 1@bedb3455"/>
  <path style="stroke: rgb(0, 0, 0); fill: rgb(195, 53, 154);" d="M 169.15833333333333 248.08866666666668 C 159.76066666666668 259.33733333333333 140.96533333333335 281.8346666666667 128.29266666666666 296.643 C 115.62 311.45133333333337 109.07 318.5706666666667 105.2255 326.11733333333336 C 101.38099999999999 333.664 100.242 341.638 100.81149999999998 348.7575 C 101.38099999999999 355.877 103.65899999999999 362.142 107.36099999999999 368.4071666666667 C 111.06299999999999 374.67233333333326 116.18900000000001 380.93766666666664 124.44766666666668 384.9246666666666 C 132.70633333333333 388.91166666666663 144.09766666666667 390.6203333333333 153.78016666666664 388.76933333333335 C 163.46266666666668 386.91833333333335 171.43633333333332 381.50766666666664 177.13183333333333 375.2425 C 182.8273333333333 368.9773333333333 186.2446666666667 361.8576666666666 186.10233333333335 338.64816666666667 C 185.96 315.4386666666667 182.258 276.13933333333335 180.407 256.48966666666666 C 178.556 236.84 178.556 236.84 178.556 236.84 C 178.556 236.84 178.556 236.84 169.15833333333333 248.08866666666668" bx:d="M 178.556 236.84 U 122.17 304.332 U 102.52 325.69 U 99.103 349.612 U 105.937 368.407 U 121.315 387.203 U 155.489 392.329 U 179.41 376.097 U 189.662 354.738 U 178.556 236.84 U 178.556 236.84 Z 1@9f1461ad"/>
  <ellipse style="stroke: rgb(0, 0, 0); fill: rgb(6, 6, 6);" cx="252.028" cy="237.599" rx="66.638" ry="65.784"/>
  <rect x="293.89" y="179.504" width="37.591" height="125.587" style="stroke: rgb(0, 0, 0); fill: rgb(11, 11, 11);"/>
  <rect x="-310.13" y="217.95" width="15.376" height="54.677" style="fill: rgb(216, 216, 216); stroke: rgb(0, 0, 0); pointer-events: none;" transform="matrix(-1, 0, 0, 1, 0, 0)"/>
  <ellipse style="stroke: rgb(0, 0, 0); fill: rgb(250, 245, 245);" cx="250.319" cy="236.317" rx="29.902" ry="33.746"/>
  <polygon style="stroke: rgb(0, 0, 0); fill: rgb(6, 6, 6);" points="291.327 305.092 293.036 168.398 334.044 164.981 334.044 304.237"/>
  <polygon style="stroke: rgb(0, 0, 0); fill: rgb(6, 6, 6);" points="624.518 303.383 626.227 166.689 667.235 163.272 667.235 302.528"/>
  <ellipse style="stroke: rgb(0, 0, 0); fill: rgb(6, 6, 6);" cx="586.073" cy="235.036" rx="66.638" ry="65.784"/>
  <ellipse style="stroke: rgb(0, 0, 0); fill: rgb(250, 245, 245);" cx="582.654" cy="234.608" rx="29.902" ry="33.746"/>
  <polygon style="stroke: rgb(0, 0, 0); fill: rgb(10, 10, 10);" points="343.441 280.41 342.587 123.213 372.489 123.213 375.906 279.556"/>
  <polyline style="stroke: rgb(0, 0, 0); fill: rgb(10, 10, 10);" points="367.363 139.446 372.489 123.213 424.603 213.774 463.902 128.339 503.202 127.485 509.182 278.702 474.154 279.556 473.301 179.6 437.418 266.742 413.497 265.886 375.905 188.998"/>
  <text style="fill: rgb(51, 51, 51); font-family: Arial, sans-serif; font-size: 28px; paint-order: fill; stroke: url(&quot;#pattern-0-0&quot;); stroke-linecap: round; white-space: pre;" x="260.571" y="332.525" id="object-0"> </text>
  <text style="font-family: Roboto; font-size: 36px; paint-order: fill; stroke: url(&quot;#pattern-0-1&quot;); stroke-dasharray: 20px; stroke-dashoffset: -29px; stroke-linecap: round; stroke-miterlimit: 14.66; white-space: pre; mix-blend-mode: darken; isolation: isolate;" x="205.273" y="341.389">Building Africa’s Digital Future</text>
  <animate attributeName="color-interpolation" values="sRGB; sRGB" begin="7.43s" dur="2s" fill="freeze"/>
</svg>